# xmcd CD database file
# Copyright (C) 1997 Ti Kan
#
# Track frame offsets:
#  150
#  16630
#  42170
#  56585
#  75055
#  91645
#  105760
#  124360
#  139905
#  152537
#  165370
#  174515
#  186352
#
# Disc length: 2731 seconds
#
# Revision: 1
# Processed by: cddbd v1.4b41PL1 Copyright (c) Steve Scherf et al.
# Submitted via: CDWizzard Release:4.24
#
DISCID=880aa90d
DTITLE=Belle Starr - Far As the Wind Blows
DYEAR=1900
DGENRE=
TTITLE0=Stolen Glances
TTITLE1=Far As the Wind Blows
TTITLE2=Santa Fe
TTITLE3=Yesterday's Kiss
TTITLE4=The Gang's All Here
TTITLE5=Too Bad
TTITLE6=Slowing to a Stop
TTITLE7=Magnets
TTITLE8=Pity All the Same
TTITLE9=Cry, Cry Again
TTITLE10=Hook, Line and Sinker
TTITLE11=Sleepwalk
TTITLE12=All Fall Down
EXTD=
EXTT0=
EXTT1=
EXTT2=
EXTT3=
EXTT4=
EXTT5=
EXTT6=
EXTT7=
EXTT8=
EXTT9=
EXTT10=
EXTT11=
EXTT12=
PLAYORDER=
